<svg xmlns="http://www.w3.org/2000/svg" width="900" height="500">
  <style>
    .axis { stroke: #555; stroke-width: 1; }
    .grid { stroke: #ccc; stroke-width: 0.5; }
    .label { font: 12px sans-serif; fill: #333; }
  </style>
  <rect width="100%" height="100%" fill="#fff" />
    <text x="450.0" y="30" text-anchor="middle" class="label" font-size="18">Huffman Coding Time Complexity</text>
  <line class="axis" x1="80" y1="420" x2="820" y2="420" />
  <line class="axis" x1="80" y1="80" x2="80" y2="420" />
  <text x="450.0" y="480" text-anchor="middle" class="label">Number of Symbols (n)</text>
  <text x="20" y="250.0" text-anchor="middle" transform="rotate(-90 20,250.0)" class="label">Time (s)</text>
  <line class="grid" x1="80.0" y1="80" x2="80.0" y2="420" />
  <text x="80.0" y="440" text-anchor="middle" class="label">10</text>
  <line class="grid" x1="80" y1="80.0" x2="820" y2="80.0" />
  <text x="70" y="84.0" text-anchor="end" class="label">0.001597</text>
  <line class="grid" x1="265.0" y1="80" x2="265.0" y2="420" />
  <text x="265.0" y="440" text-anchor="middle" class="label">2508</text>
  <line class="grid" x1="80" y1="165.0" x2="820" y2="165.0" />
  <text x="70" y="169.0" text-anchor="end" class="label">0.001198</text>
  <line class="grid" x1="450.0" y1="80" x2="450.0" y2="420" />
  <text x="450.0" y="440" text-anchor="middle" class="label">5005</text>
  <line class="grid" x1="80" y1="250.0" x2="820" y2="250.0" />
  <text x="70" y="254.0" text-anchor="end" class="label">0.000798</text>
  <line class="grid" x1="635.0" y1="80" x2="635.0" y2="420" />
  <text x="635.0" y="440" text-anchor="middle" class="label">7502</text>
  <line class="grid" x1="80" y1="335.0" x2="820" y2="335.0" />
  <text x="70" y="339.0" text-anchor="end" class="label">0.000399</text>
  <line class="grid" x1="820.0" y1="80" x2="820.0" y2="420" />
  <text x="820.0" y="440" text-anchor="middle" class="label">10000</text>
  <line class="grid" x1="80" y1="420.0" x2="820" y2="420.0" />
  <text x="70" y="424.0" text-anchor="end" class="label">0.000000</text>
  <polyline fill="none" stroke="#ff7f0e" stroke-width="2" points="80.0,417.2323105823419 82.96296296296296,415.9549154664997 86.66666666666667,415.9549154664997 116.2962962962963,408.07764558547274 153.33333333333331,397.0068879148403 449.6296296296296,260.1127113337508 820.0,80.0" />
  <circle cx="80.0" cy="417.2323105823419" r="4" fill="#ff7f0e" />
  <circle cx="82.96296296296296" cy="415.9549154664997" r="4" fill="#ff7f0e" />
  <circle cx="86.66666666666667" cy="415.9549154664997" r="4" fill="#ff7f0e" />
  <circle cx="116.2962962962963" cy="408.07764558547274" r="4" fill="#ff7f0e" />
  <circle cx="153.33333333333331" cy="397.0068879148403" r="4" fill="#ff7f0e" />
  <circle cx="449.6296296296296" cy="260.1127113337508" r="4" fill="#ff7f0e" />
  <circle cx="820.0" cy="80.0" r="4" fill="#ff7f0e" />
</svg>