<svg xmlns="http://www.w3.org/2000/svg" width="900" height="520"><style>.axis{stroke:#555;stroke-width:1}.grid{stroke:#d0d0d0;stroke-width:.7}.lbl{font:12px system-ui,sans-serif;fill:#222}</style><rect width="100%" height="100%" fill="#fff"/><text x="450.0" y="30" text-anchor="middle" class="lbl" font-size="17">Floyd–Warshall Timing O(n³) — with/without Negative Cycle</text><line class="axis" x1="80" y1="440" x2="820" y2="440"/><line class="axis" x1="80" y1="80" x2="80" y2="440"/><text x="450.0" y="500" text-anchor="middle" class="lbl">Vertices (n)</text><text x="20" y="260.0" text-anchor="middle" transform="rotate(-90 20,260.0)" class="lbl">Time (s)</text><line class="grid" x1="80.0" y1="80" x2="80.0" y2="440"/><text x="80.0" y="458" text-anchor="middle" class="lbl">20</text><line class="grid" x1="80" y1="80.0" x2="820" y2="80.0"/><text x="72" y="84.0" text-anchor="end" class="lbl">0.000390</text><line class="grid" x1="265.0" y1="80" x2="265.0" y2="440"/><text x="265.0" y="458" text-anchor="middle" class="lbl">35</text><line class="grid" x1="80" y1="170.0" x2="820" y2="170.0"/><text x="72" y="174.0" text-anchor="end" class="lbl">0.000293</text><line class="grid" x1="450.0" y1="80" x2="450.0" y2="440"/><text x="450.0" y="458" text-anchor="middle" class="lbl">50</text><line class="grid" x1="80" y1="260.0" x2="820" y2="260.0"/><text x="72" y="264.0" text-anchor="end" class="lbl">0.000195</text><line class="grid" x1="635.0" y1="80" x2="635.0" y2="440"/><text x="635.0" y="458" text-anchor="middle" class="lbl">65</text><line class="grid" x1="80" y1="350.0" x2="820" y2="350.0"/><text x="72" y="354.0" text-anchor="end" class="lbl">0.000098</text><line class="grid" x1="820.0" y1="80" x2="820.0" y2="440"/><text x="820.0" y="458" text-anchor="middle" class="lbl">80</text><line class="grid" x1="80" y1="440.0" x2="820" y2="440.0"/><text x="72" y="444.0" text-anchor="end" class="lbl">0.000000</text><polyline fill="none" stroke="#1f77b4" stroke-width="2" points="80.0,427.62830511991024 203.33333333333331,402.04028000829885 326.66666666666663,389.4002566486603 573.3333333333333,154.88208761401273 820.0,80.0"/><circle cx="80.0" cy="427.62830511991024" r="4" fill="#1f77b4"/><circle cx="203.33333333333331" cy="402.04028000829885" r="4" fill="#1f77b4"/><circle cx="326.66666666666663" cy="389.4002566486603" r="4" fill="#1f77b4"/><circle cx="573.3333333333333" cy="154.88208761401273" r="4" fill="#1f77b4"/><circle cx="820.0" cy="80.0" r="4" fill="#1f77b4"/><rect x="80" y="60" width="14" height="14" fill="#1f77b4"/><text x="100" y="72" class="lbl">No Neg Cycle</text><polyline fill="none" stroke="#d62728" stroke-width="2" points="80.0,428.4738625623372 203.33333333333331,419.21514688141144 326.66666666666663,404.9605421895051 573.3333333333333,288.354759142148 820.0,205.55836451793851"/><circle cx="80.0" cy="428.4738625623372" r="4" fill="#d62728"/><circle cx="203.33333333333331" cy="419.21514688141144" r="4" fill="#d62728"/><circle cx="326.66666666666663" cy="404.9605421895051" r="4" fill="#d62728"/><circle cx="573.3333333333333" cy="288.354759142148" r="4" fill="#d62728"/><circle cx="820.0" cy="205.55836451793851" r="4" fill="#d62728"/><rect x="250" y="60" width="14" height="14" fill="#d62728"/><text x="270" y="72" class="lbl">Neg Cycle</text></svg>