<svg xmlns="http://www.w3.org/2000/svg" width="900" height="520">
  <style>
    .axis { stroke: #555; stroke-width: 1; }
    .grid { stroke: #d0d0d0; stroke-width: 0.7; }
    .label { font: 12px system-ui, -apple-system, Segoe UI, sans-serif; fill: #222; }
  </style>
  <rect width="100%" height="100%" fill="#fff" />
  <text x="450.0" y="30" text-anchor="middle" class="label" font-size="18">Rabin-Karp String Matching Timing</text>
  <line class="axis" x1="80" y1="440" x2="820" y2="440" />
  <line class="axis" x1="80" y1="80" x2="80" y2="440" />
  <text x="450.0" y="500" text-anchor="middle" class="label">Text length (n)</text>
  <text x="20" y="260.0" text-anchor="middle" transform="rotate(-90 20,260.0)" class="label">Time (s)</text>
  <line class="grid" x1="80.0" y1="80" x2="80.0" y2="440" />
  <text x="80.0" y="460" text-anchor="middle" class="label">100</text>
  <line class="grid" x1="80" y1="80.0" x2="820" y2="80.0" />
  <text x="70" y="84.0" text-anchor="end" class="label">0.000011</text>
  <line class="grid" x1="265.0" y1="80" x2="265.0" y2="440" />
  <text x="265.0" y="460" text-anchor="middle" class="label">2575</text>
  <line class="grid" x1="80" y1="170.0" x2="820" y2="170.0" />
  <text x="70" y="174.0" text-anchor="end" class="label">0.000008</text>
  <line class="grid" x1="450.0" y1="80" x2="450.0" y2="440" />
  <text x="450.0" y="460" text-anchor="middle" class="label">5050</text>
  <line class="grid" x1="80" y1="260.0" x2="820" y2="260.0" />
  <text x="70" y="264.0" text-anchor="end" class="label">0.000006</text>
  <line class="grid" x1="635.0" y1="80" x2="635.0" y2="440" />
  <text x="635.0" y="460" text-anchor="middle" class="label">7525</text>
  <line class="grid" x1="80" y1="350.0" x2="820" y2="350.0" />
  <text x="70" y="354.0" text-anchor="end" class="label">0.000003</text>
  <line class="grid" x1="820.0" y1="80" x2="820.0" y2="440" />
  <text x="820.0" y="460" text-anchor="middle" class="label">10000</text>
  <line class="grid" x1="80" y1="440.0" x2="820" y2="440.0" />
  <text x="70" y="444.0" text-anchor="end" class="label">0.000000</text>
  <polyline fill="none" stroke="#1f77b4" stroke-width="2" points="80.0,431.91011235955057 87.47474747474747,426.50606741573034 109.8989898989899,414.3712359550562 147.27272727272728,396.8323595505618 222.02020202020202,357.7743820224719 446.26262626262627,182.45033707865167 820.0,80.0" />
  <circle cx="80.0" cy="431.91011235955057" r="4" fill="#1f77b4" />
  <circle cx="87.47474747474747" cy="426.50606741573034" r="4" fill="#1f77b4" />
  <circle cx="109.8989898989899" cy="414.3712359550562" r="4" fill="#1f77b4" />
  <circle cx="147.27272727272728" cy="396.8323595505618" r="4" fill="#1f77b4" />
  <circle cx="222.02020202020202" cy="357.7743820224719" r="4" fill="#1f77b4" />
  <circle cx="446.26262626262627" cy="182.45033707865167" r="4" fill="#1f77b4" />
  <circle cx="820.0" cy="80.0" r="4" fill="#1f77b4" />
  <rect x="80" y="60" width="14" height="14" fill="#1f77b4" />
  <text x="100" y="72" class="label">Rabin-Karp</text>
</svg>