<svg xmlns="http://www.w3.org/2000/svg" width="900" height="500">
  <style>
    .axis { stroke: #555; stroke-width: 1; }
    .grid { stroke: #d0d0d0; stroke-width: 0.7; }
    .label { font: 12px system-ui, -apple-system, Segoe UI, sans-serif; fill: #222; }
  </style>
  <rect width="100%" height="100%" fill="#fff" />
  <text x="450.0" y="30" text-anchor="middle" class="label" font-size="18">0/1 Knapsack - Branch and Bound (Binary Decision Tree)</text>
  <line class="axis" x1="80" y1="420" x2="820" y2="420" />
  <line class="axis" x1="80" y1="80" x2="80" y2="420" />
  <text x="450.0" y="480" text-anchor="middle" class="label">Number of items (n)</text>
  <text x="20" y="250.0" text-anchor="middle" transform="rotate(-90 20,250.0)" class="label">Time (s)</text>
  <line class="grid" x1="80.0" y1="80" x2="80.0" y2="420" />
  <text x="80.0" y="440" text-anchor="middle" class="label">5</text>
  <line class="grid" x1="80" y1="80.0" x2="820" y2="80.0" />
  <text x="70" y="84.0" text-anchor="end" class="label">0.000005</text>
  <line class="grid" x1="265.0" y1="80" x2="265.0" y2="420" />
  <text x="265.0" y="440" text-anchor="middle" class="label">14</text>
  <line class="grid" x1="80" y1="165.0" x2="820" y2="165.0" />
  <text x="70" y="169.0" text-anchor="end" class="label">0.000004</text>
  <line class="grid" x1="450.0" y1="80" x2="450.0" y2="420" />
  <text x="450.0" y="440" text-anchor="middle" class="label">22</text>
  <line class="grid" x1="80" y1="250.0" x2="820" y2="250.0" />
  <text x="70" y="254.0" text-anchor="end" class="label">0.000003</text>
  <line class="grid" x1="635.0" y1="80" x2="635.0" y2="420" />
  <text x="635.0" y="440" text-anchor="middle" class="label">31</text>
  <line class="grid" x1="80" y1="335.0" x2="820" y2="335.0" />
  <text x="70" y="339.0" text-anchor="end" class="label">0.000001</text>
  <line class="grid" x1="820.0" y1="80" x2="820.0" y2="420" />
  <text x="820.0" y="440" text-anchor="middle" class="label">40</text>
  <line class="grid" x1="80" y1="420.0" x2="820" y2="420.0" />
  <text x="70" y="424.0" text-anchor="end" class="label">0.000000</text>
  <polyline fill="none" stroke="#1f77b4" stroke-width="2" points="80.0,361.0846560846561 185.71428571428572,294.2025699168556 291.42857142857144,315.5971277399849 397.1428571428571,245.95238095238096 502.85714285714283,154.97732426303855 608.5714285714286,173.73771730914586 714.2857142857142,80.0642479213908 820.0,80.0" />
  <circle cx="80.0" cy="361.0846560846561" r="4" fill="#1f77b4" />
  <circle cx="185.71428571428572" cy="294.2025699168556" r="4" fill="#1f77b4" />
  <circle cx="291.42857142857144" cy="315.5971277399849" r="4" fill="#1f77b4" />
  <circle cx="397.1428571428571" cy="245.95238095238096" r="4" fill="#1f77b4" />
  <circle cx="502.85714285714283" cy="154.97732426303855" r="4" fill="#1f77b4" />
  <circle cx="608.5714285714286" cy="173.73771730914586" r="4" fill="#1f77b4" />
  <circle cx="714.2857142857142" cy="80.0642479213908" r="4" fill="#1f77b4" />
  <circle cx="820.0" cy="80.0" r="4" fill="#1f77b4" />
</svg>