<svg xmlns="http://www.w3.org/2000/svg" width="900" height="500">
  <style>
    .axis { stroke: #555; stroke-width: 1; }
    .grid { stroke: #ccc; stroke-width: 0.5; }
    .label { font: 12px sans-serif; fill: #333; }
  </style>
  <rect width="100%" height="100%" fill="#fff" />
    <text x="450.0" y="30" text-anchor="middle" class="label" font-size="18">Rod Cutting Time Complexity (O(n^2))</text>
  <line class="axis" x1="80" y1="420" x2="820" y2="420" />
  <line class="axis" x1="80" y1="80" x2="80" y2="420" />
  <text x="450.0" y="480" text-anchor="middle" class="label">Rod Length (n)</text>
  <text x="20" y="250.0" text-anchor="middle" transform="rotate(-90 20,250.0)" class="label">Time (s)</text>
  <line class="grid" x1="80.0" y1="80" x2="80.0" y2="420" />
  <text x="80.0" y="440" text-anchor="middle" class="label">5</text>
  <line class="grid" x1="80" y1="80.0" x2="820" y2="80.0" />
  <text x="70" y="84.0" text-anchor="end" class="label">0.002979</text>
  <line class="grid" x1="265.0" y1="80" x2="265.0" y2="420" />
  <text x="265.0" y="440" text-anchor="middle" class="label">1254</text>
  <line class="grid" x1="80" y1="165.0" x2="820" y2="165.0" />
  <text x="70" y="169.0" text-anchor="end" class="label">0.002234</text>
  <line class="grid" x1="450.0" y1="80" x2="450.0" y2="420" />
  <text x="450.0" y="440" text-anchor="middle" class="label">2502</text>
  <line class="grid" x1="80" y1="250.0" x2="820" y2="250.0" />
  <text x="70" y="254.0" text-anchor="end" class="label">0.001489</text>
  <line class="grid" x1="635.0" y1="80" x2="635.0" y2="420" />
  <text x="635.0" y="440" text-anchor="middle" class="label">3751</text>
  <line class="grid" x1="80" y1="335.0" x2="820" y2="335.0" />
  <text x="70" y="339.0" text-anchor="end" class="label">0.000745</text>
  <line class="grid" x1="820.0" y1="80" x2="820.0" y2="420" />
  <text x="820.0" y="440" text-anchor="middle" class="label">5000</text>
  <line class="grid" x1="80" y1="420.0" x2="820" y2="420.0" />
  <text x="70" y="424.0" text-anchor="end" class="label">0.000000</text>
  <polyline fill="none" stroke="#d62728" stroke-width="2" points="80.0,419.2010741859684 80.74074074074075,419.2010741859684 82.22222222222223,419.42933870426316 86.66666666666667,419.3152064451158 94.07407407407408,418.97280966767374 108.88888888888889,416.00537092984223 153.33333333333331,414.74991607922124 227.40740740740742,398.8855320577375 375.55555555555554,357.79791876468613 820.0,80.0" />
  <circle cx="80.0" cy="419.2010741859684" r="4" fill="#d62728" />
  <circle cx="80.74074074074075" cy="419.2010741859684" r="4" fill="#d62728" />
  <circle cx="82.22222222222223" cy="419.42933870426316" r="4" fill="#d62728" />
  <circle cx="86.66666666666667" cy="419.3152064451158" r="4" fill="#d62728" />
  <circle cx="94.07407407407408" cy="418.97280966767374" r="4" fill="#d62728" />
  <circle cx="108.88888888888889" cy="416.00537092984223" r="4" fill="#d62728" />
  <circle cx="153.33333333333331" cy="414.74991607922124" r="4" fill="#d62728" />
  <circle cx="227.40740740740742" cy="398.8855320577375" r="4" fill="#d62728" />
  <circle cx="375.55555555555554" cy="357.79791876468613" r="4" fill="#d62728" />
  <circle cx="820.0" cy="80.0" r="4" fill="#d62728" />
</svg>